# xmcd
#
# Track frame offsets:
#	150
#	13446
#	27370
#	40705
#	56214
#	69803
#	85630
#	101296
#	114715
#	129693
#	157906
#	170692
#	184916
#
# Disc length: 2662
#
# Revision: 1
# Processed by: cddbd v1.5.1PL0 Copyright (c) Steve Scherf et al.
# Submitted via: audiograbber 1.83.01
# Normalized: r0:DSETVAR1
#
DISCID=a80a640d
DTITLE=Various Artist - Anthology of American Folk Mus CD2
DYEAR=1900
DGENRE=Country
TTITLE0=Edward l. Crain - Bandit Cole Younger
TTITLE1=Kelly Harrell - Charles Giteau
TTITLE2=John Hardy Was a Desperate Lit - John Hardy Was a Desperate Lit
TTITLE3=Williamson Brothers - Gonna Die with my Hammer in My
TTITLE4=Frank Hutchison - Stackalee
TTITLE5=Charlie Poole - White House Blues
TTITLE6=Mississippi John Hurt - Frankie
TTITLE7=William Smith - When That Great Ship Went Down
TTITLE8=Carter Family - Engine 143
TTITLE9=Furrx Lewis - Kassie Jones
TTITLE10=Bentley Boys - Down on Penny's Farm
TTITLE11=Masked Marvel - Mississippi Boweavil Blues
TTITLE12=Carolina Tar Heels - Got the Farm Land Blues
EXTD=
EXTT0=
EXTT1=
EXTT2=
EXTT3=
EXTT4=
EXTT5=
EXTT6=
EXTT7=
EXTT8=
EXTT9=
EXTT10=
EXTT11=
EXTT12=
PLAYORDER=
